<svg width="31" height="28" viewBox="0 0 31 28" fill="none" xmlns="http://www.w3.org/2000/svg">
<path d="M20.5129 5.09082H3.48717C3.27977 5.09196 3.07982 5.18151 2.9247 5.34273C2.76959 5.50394 2.66991 5.72578 2.64431 5.9668L1.14823 21.759C1.13493 21.8966 1.1465 22.0359 1.18219 22.1679C1.21788 22.3 1.2769 22.4217 1.35539 22.5253C1.43389 22.6288 1.53012 22.7119 1.63783 22.7691C1.74554 22.8262 1.86231 22.8563 1.98057 22.8571H22.0195C22.1377 22.8563 22.2545 22.8262 22.3622 22.7691C22.47 22.7119 22.5662 22.6288 22.6447 22.5253C22.7231 22.4217 22.7822 22.3 22.8179 22.1679C22.8535 22.0359 22.8652 21.8966 22.8518 21.759L21.3558 5.9668C21.3302 5.72578 21.2304 5.50394 21.0753 5.34273C20.9203 5.18151 20.7203 5.09196 20.5129 5.09082Z" stroke="#484548" stroke-width="1.71429" stroke-linecap="round" stroke-linejoin="round"/>
<path d="M7.93488 8.38091V5.16399C7.93488 4.09751 8.33928 3.07471 9.05912 2.32059C9.77896 1.56648 10.7553 1.14282 11.7733 1.14282C12.7912 1.14282 13.7676 1.56648 14.4875 2.32059C15.2072 3.07471 15.6117 4.09751 15.6117 5.16399V8.38091" stroke="#484548" stroke-width="1.37143" stroke-linecap="round" stroke-linejoin="round"/>
<circle cx="22" cy="19" r="9" fill="#F2ECE8"/>
<path d="M22.018 24.168C21.5047 24.168 21.038 24.0933 20.618 23.944C20.2073 23.7853 19.8573 23.5193 19.568 23.146C19.288 22.7727 19.0687 22.2687 18.91 21.634C18.7607 20.99 18.686 20.178 18.686 19.198C18.686 18.218 18.7607 17.4107 18.91 16.776C19.0687 16.132 19.288 15.6233 19.568 15.25C19.8573 14.8767 20.2073 14.6153 20.618 14.466C21.038 14.3073 21.5047 14.228 22.018 14.228C22.5407 14.228 23.0073 14.3073 23.418 14.466C23.8287 14.6153 24.174 14.8767 24.454 15.25C24.7433 15.6233 24.9627 16.132 25.112 16.776C25.2707 17.4107 25.35 18.218 25.35 19.198C25.35 20.178 25.2707 20.99 25.112 21.634C24.9627 22.2687 24.7433 22.7727 24.454 23.146C24.174 23.5193 23.8287 23.7853 23.418 23.944C23.0073 24.0933 22.5407 24.168 22.018 24.168ZM22.018 22.964C22.5127 22.964 22.886 22.838 23.138 22.586C23.3993 22.3247 23.5813 21.942 23.684 21.438C23.7867 20.934 23.838 20.3087 23.838 19.562V18.876C23.838 18.1107 23.7867 17.476 23.684 16.972C23.5813 16.4587 23.3993 16.076 23.138 15.824C22.886 15.5627 22.5127 15.432 22.018 15.432C21.5327 15.432 21.1593 15.5627 20.898 15.824C20.6367 16.076 20.4547 16.454 20.352 16.958C20.2493 17.462 20.198 18.092 20.198 18.848V19.534C20.198 20.2807 20.2493 20.9107 20.352 21.424C20.4547 21.9373 20.6367 22.3247 20.898 22.586C21.1593 22.838 21.5327 22.964 22.018 22.964Z" fill="#BB5036"/>
</svg>
