<svg width="212" height="42" viewBox="0 0 212 42" fill="none" xmlns="http://www.w3.org/2000/svg">
<path d="M51.366 30V12.164H60.336C61.376 12.164 62.26 12.3373 62.988 12.684C63.7333 13.0307 64.3053 13.5247 64.704 14.166C65.1027 14.8073 65.302 15.57 65.302 16.454C65.302 17.13 65.1807 17.754 64.938 18.326C64.7127 18.898 64.3833 19.3833 63.95 19.782C63.534 20.1633 63.04 20.4493 62.468 20.64V20.744C63.0747 20.8827 63.6293 21.1253 64.132 21.472C64.6347 21.8187 65.0333 22.2953 65.328 22.902C65.64 23.4913 65.796 24.2453 65.796 25.164C65.796 26.3427 65.5533 27.2873 65.068 27.998C64.6 28.7087 63.9587 29.22 63.144 29.532C62.3293 29.844 61.3933 30 60.336 30H51.366ZM53.42 28.232H60.466C61.4367 28.232 62.2167 27.9893 62.806 27.504C63.4127 27.0013 63.716 26.1607 63.716 24.982C63.716 24.2367 63.586 23.6213 63.326 23.136C63.066 22.6507 62.6847 22.2953 62.182 22.07C61.6793 21.8447 61.0467 21.732 60.284 21.732H53.42V28.232ZM53.42 19.964H60.024C60.648 19.964 61.194 19.8427 61.662 19.6C62.1473 19.34 62.5287 18.976 62.806 18.508C63.0833 18.04 63.222 17.5027 63.222 16.896C63.222 15.8907 62.9447 15.1453 62.39 14.66C61.8527 14.1747 61.1333 13.932 60.232 13.932H53.42V19.964ZM74.1761 30.312C72.8761 30.312 71.7755 30.0607 70.8741 29.558C69.9728 29.038 69.2881 28.2493 68.8201 27.192C68.3521 26.1347 68.1181 24.7913 68.1181 23.162C68.1181 21.5153 68.3521 20.172 68.8201 19.132C69.2881 18.0747 69.9815 17.2947 70.9001 16.792C71.8188 16.272 72.9628 16.012 74.3321 16.012C75.5975 16.012 76.6548 16.2633 77.5041 16.766C78.3708 17.2687 79.0208 17.9967 79.4541 18.95C79.9048 19.9033 80.1301 21.0733 80.1301 22.46V23.656H70.0681C70.0681 24.852 70.2328 25.8313 70.5621 26.594C70.8915 27.3567 71.3595 27.9113 71.9661 28.258C72.5901 28.5873 73.3528 28.752 74.2541 28.752C74.9128 28.752 75.4848 28.6653 75.9701 28.492C76.4728 28.3187 76.8801 28.0847 77.1921 27.79C77.5215 27.478 77.7728 27.114 77.9461 26.698C78.1195 26.282 78.2061 25.8487 78.2061 25.398H80.0261C80.0261 26.074 79.8961 26.7153 79.6361 27.322C79.3935 27.9113 79.0295 28.4313 78.5441 28.882C78.0761 29.3327 77.4781 29.688 76.7501 29.948C76.0221 30.1907 75.1641 30.312 74.1761 30.312ZM70.0681 22.174H78.1801C78.1801 21.3073 78.0761 20.588 77.8681 20.016C77.6775 19.4267 77.4088 18.9587 77.0621 18.612C76.7155 18.248 76.2995 17.988 75.8141 17.832C75.3461 17.676 74.8175 17.598 74.2281 17.598C73.3788 17.598 72.6508 17.7627 72.0441 18.092C71.4375 18.404 70.9695 18.898 70.6401 19.574C70.3281 20.25 70.1375 21.1167 70.0681 22.174ZM87.5145 30.312C86.6132 30.312 85.8159 30.2167 85.1225 30.026C84.4292 29.8527 83.8485 29.5927 83.3805 29.246C82.9299 28.882 82.5832 28.4487 82.3405 27.946C82.1152 27.4433 82.0025 26.8627 82.0025 26.204C82.0025 26.1347 82.0025 26.0653 82.0025 25.996C82.0025 25.9093 82.0112 25.8313 82.0285 25.762H83.8745C83.8572 25.8487 83.8485 25.9267 83.8485 25.996C83.8485 26.048 83.8485 26.1 83.8485 26.152C83.8659 26.828 84.0305 27.3567 84.3425 27.738C84.6545 28.102 85.0965 28.362 85.6685 28.518C86.2405 28.674 86.8992 28.752 87.6445 28.752C88.2859 28.752 88.8579 28.6653 89.3605 28.492C89.8805 28.3013 90.2879 28.0327 90.5825 27.686C90.8945 27.3393 91.0505 26.9147 91.0505 26.412C91.0505 25.7707 90.8512 25.2853 90.4525 24.956C90.0712 24.6267 89.5685 24.3753 88.9445 24.202C88.3205 24.0113 87.6705 23.812 86.9945 23.604C86.4399 23.448 85.8939 23.2833 85.3565 23.11C84.8192 22.9193 84.3252 22.6853 83.8745 22.408C83.4412 22.1307 83.0945 21.7753 82.8345 21.342C82.5745 20.9087 82.4445 20.3627 82.4445 19.704C82.4445 19.132 82.5572 18.6207 82.7825 18.17C83.0252 17.7193 83.3632 17.338 83.7965 17.026C84.2472 16.6967 84.7932 16.4453 85.4345 16.272C86.0759 16.0987 86.8039 16.012 87.6185 16.012C88.5199 16.012 89.2912 16.116 89.9325 16.324C90.5739 16.532 91.0939 16.818 91.4925 17.182C91.8912 17.5287 92.1859 17.9273 92.3765 18.378C92.5672 18.8113 92.6625 19.2707 92.6625 19.756C92.6625 19.8253 92.6539 19.9033 92.6365 19.99C92.6365 20.0767 92.6365 20.1547 92.6365 20.224H90.7905V19.886C90.7905 19.522 90.6952 19.1667 90.5045 18.82C90.3312 18.4733 90.0105 18.1787 89.5425 17.936C89.0919 17.6933 88.4159 17.572 87.5145 17.572C86.9772 17.572 86.5092 17.624 86.1105 17.728C85.7292 17.8147 85.3999 17.9447 85.1225 18.118C84.8625 18.2913 84.6632 18.508 84.5245 18.768C84.4032 19.0107 84.3425 19.2967 84.3425 19.626C84.3425 20.1287 84.4985 20.5187 84.8105 20.796C85.1399 21.056 85.5645 21.2727 86.0845 21.446C86.6045 21.602 87.1592 21.7753 87.7485 21.966C88.3379 22.1393 88.9359 22.3213 89.5425 22.512C90.1665 22.7027 90.7385 22.9367 91.2585 23.214C91.7785 23.4913 92.1945 23.864 92.5065 24.332C92.8185 24.7827 92.9745 25.3807 92.9745 26.126C92.9745 26.8193 92.8359 27.4347 92.5585 27.972C92.2812 28.492 91.8999 28.9253 91.4145 29.272C90.9292 29.6187 90.3485 29.8787 89.6725 30.052C89.0139 30.2253 88.2945 30.312 87.5145 30.312ZM98.8536 30.286C98.2296 30.286 97.7269 30.1733 97.3456 29.948C96.9816 29.7227 96.7216 29.4107 96.5656 29.012C96.4269 28.6133 96.3576 28.1713 96.3576 27.686V17.91H94.5116V16.324H96.3576L96.7216 12.528H98.2296V16.324H100.856V17.91H98.2296V27.348C98.2296 27.816 98.2902 28.1627 98.4116 28.388C98.5502 28.6133 98.8449 28.726 99.2956 28.726H100.856V29.922C100.682 29.9913 100.474 30.052 100.232 30.104C100.006 30.1733 99.7722 30.2167 99.5296 30.234C99.2869 30.2687 99.0616 30.286 98.8536 30.286ZM114.322 30.312C113.004 30.312 111.878 30.0607 110.942 29.558C110.023 29.038 109.321 28.2493 108.836 27.192C108.368 26.1347 108.134 24.7913 108.134 23.162C108.134 21.5153 108.368 20.172 108.836 19.132C109.321 18.0747 110.023 17.2947 110.942 16.792C111.878 16.272 113.004 16.012 114.322 16.012C115.674 16.012 116.8 16.272 117.702 16.792C118.62 17.2947 119.314 18.0747 119.782 19.132C120.267 20.172 120.51 21.5153 120.51 23.162C120.51 24.7913 120.267 26.1347 119.782 27.192C119.314 28.2493 118.62 29.038 117.702 29.558C116.8 30.0607 115.674 30.312 114.322 30.312ZM114.322 28.726C115.24 28.726 116.012 28.544 116.636 28.18C117.26 27.816 117.736 27.2527 118.066 26.49C118.395 25.71 118.56 24.7047 118.56 23.474V22.85C118.56 21.6193 118.395 20.6227 118.066 19.86C117.736 19.08 117.26 18.508 116.636 18.144C116.012 17.78 115.24 17.598 114.322 17.598C113.403 17.598 112.632 17.78 112.008 18.144C111.384 18.508 110.907 19.08 110.578 19.86C110.248 20.6227 110.084 21.6193 110.084 22.85V23.474C110.084 24.7047 110.248 25.71 110.578 26.49C110.907 27.2527 111.384 27.816 112.008 28.18C112.632 28.544 113.403 28.726 114.322 28.726ZM123.855 30V17.91H121.827V16.324H123.855V13.932C123.855 13.4467 123.924 12.9787 124.063 12.528C124.219 12.0773 124.496 11.7133 124.895 11.436C125.294 11.1413 125.857 10.994 126.585 10.994C126.81 10.994 127.036 11.0027 127.261 11.02C127.486 11.0373 127.694 11.0633 127.885 11.098C128.093 11.1327 128.275 11.1847 128.431 11.254V12.58H127.053C126.602 12.58 126.264 12.6927 126.039 12.918C125.831 13.1433 125.727 13.4727 125.727 13.906V16.324H128.431V17.91H125.727V30H123.855ZM136.425 30V12.164H150.075V13.932H138.479V19.964H148.931V21.758H138.479V28.232H150.231V30H136.425ZM168.404 34.498V16.324H169.886L170.094 18.326H170.276C170.761 17.546 171.368 16.9653 172.096 16.584C172.824 16.2027 173.647 16.012 174.566 16.012C175.71 16.012 176.681 16.2633 177.478 16.766C178.293 17.2687 178.908 18.0573 179.324 19.132C179.757 20.1893 179.974 21.576 179.974 23.292C179.974 24.8867 179.757 26.204 179.324 27.244C178.891 28.284 178.267 29.0553 177.452 29.558C176.655 30.0607 175.71 30.312 174.618 30.312C174.063 30.312 173.526 30.2427 173.006 30.104C172.486 29.9653 172.009 29.74 171.576 29.428C171.143 29.116 170.77 28.7173 170.458 28.232H170.276V34.498H168.404ZM174.124 28.674C174.991 28.674 175.71 28.5007 176.282 28.154C176.871 27.79 177.305 27.2267 177.582 26.464C177.877 25.7013 178.024 24.7133 178.024 23.5V22.85C178.024 21.55 177.868 20.5273 177.556 19.782C177.244 19.0193 176.802 18.4733 176.23 18.144C175.675 17.8147 175.017 17.65 174.254 17.65C173.318 17.65 172.555 17.858 171.966 18.274C171.377 18.6727 170.943 19.2707 170.666 20.068C170.406 20.848 170.276 21.81 170.276 22.954V23.396C170.276 24.4707 170.389 25.3547 170.614 26.048C170.839 26.7413 171.134 27.2787 171.498 27.66C171.862 28.0413 172.269 28.31 172.72 28.466C173.188 28.6047 173.656 28.674 174.124 28.674ZM188.234 30.312C186.917 30.312 185.79 30.0607 184.854 29.558C183.935 29.038 183.233 28.2493 182.748 27.192C182.28 26.1347 182.046 24.7913 182.046 23.162C182.046 21.5153 182.28 20.172 182.748 19.132C183.233 18.0747 183.935 17.2947 184.854 16.792C185.79 16.272 186.917 16.012 188.234 16.012C189.586 16.012 190.713 16.272 191.614 16.792C192.533 17.2947 193.226 18.0747 193.694 19.132C194.179 20.172 194.422 21.5153 194.422 23.162C194.422 24.7913 194.179 26.1347 193.694 27.192C193.226 28.2493 192.533 29.038 191.614 29.558C190.713 30.0607 189.586 30.312 188.234 30.312ZM188.234 28.726C189.153 28.726 189.924 28.544 190.548 28.18C191.172 27.816 191.649 27.2527 191.978 26.49C192.307 25.71 192.472 24.7047 192.472 23.474V22.85C192.472 21.6193 192.307 20.6227 191.978 19.86C191.649 19.08 191.172 18.508 190.548 18.144C189.924 17.78 189.153 17.598 188.234 17.598C187.315 17.598 186.544 17.78 185.92 18.144C185.296 18.508 184.819 19.08 184.49 19.86C184.161 20.6227 183.996 21.6193 183.996 22.85V23.474C183.996 24.7047 184.161 25.71 184.49 26.49C184.819 27.2527 185.296 27.816 185.92 28.18C186.544 28.544 187.315 28.726 188.234 28.726ZM197.273 30V16.324H198.781L198.937 18.612H199.119C199.24 18.196 199.422 17.7887 199.665 17.39C199.908 16.9913 200.237 16.662 200.653 16.402C201.069 16.142 201.598 16.012 202.239 16.012C202.482 16.012 202.707 16.038 202.915 16.09C203.123 16.1247 203.279 16.1593 203.383 16.194V17.91H202.577C201.97 17.91 201.45 18.0227 201.017 18.248C200.584 18.456 200.228 18.7593 199.951 19.158C199.674 19.5567 199.466 20.016 199.327 20.536C199.206 21.0387 199.145 21.5673 199.145 22.122V30H197.273ZM208.541 30.286C207.917 30.286 207.414 30.1733 207.033 29.948C206.669 29.7227 206.409 29.4107 206.253 29.012C206.114 28.6133 206.045 28.1713 206.045 27.686V17.91H204.199V16.324H206.045L206.409 12.528H207.917V16.324H210.543V17.91H207.917V27.348C207.917 27.816 207.978 28.1627 208.099 28.388C208.238 28.6133 208.532 28.726 208.983 28.726H210.543V29.922C210.37 29.9913 210.162 30.052 209.919 30.104C209.694 30.1733 209.46 30.2167 209.217 30.234C208.974 30.2687 208.749 30.286 208.541 30.286Z" fill="black"/>
<path d="M151.939 30L156.905 22.902L152.303 16.324H156.645L159.245 20.432H159.375L162.001 16.324H166.083L161.455 22.876L166.343 30H162.079L159.115 25.346H158.985L156.021 30H151.939Z" fill="#BB5036"/>
<path d="M152 29.4998L156.966 22.4018L152.364 15.8238H156.706L159.306 19.9318H159.436L168.061 6.99951H172.143L161.516 22.3758L166.404 29.4998H162.14L159.176 24.8458H159.046L156.082 29.4998H152Z" fill="#BB5036"/>
<path d="M18.2744 4.08382L25.2535 8.11403L28.7923 6.07658L18.2744 0L0.705933 10.1515L4.22678 12.1889L18.2744 4.08382Z" fill="#BB5036"/>
<path d="M32.3132 8.11401L18.2745 16.2191L11.2954 12.1889L7.76562 14.2263L18.2745 20.294L35.8519 10.1515L32.3132 8.11401Z" fill="#BB5036"/>
<path d="M3.52978 21.7506L0 19.7131V31.8484L17.5685 41.9999V37.925L3.52978 29.811V21.7506Z" fill="#BB5036"/>
<path d="M0 15.6381L14.0387 23.7432V31.8036L17.5685 33.85V21.7058L0 11.5632V15.6381Z" fill="#BB5036"/>
<path d="M29.4983 19.7131V15.6382L18.9805 21.7058V41.9998L22.5103 39.9624V23.7433L29.4983 19.7131Z" fill="#BB5036"/>
<path d="M33.0192 13.6007V29.8109L26.04 33.85V37.9249L36.5579 31.8483V11.5632L33.0192 13.6007Z" fill="#BB5036"/>
</svg>
