<svg width="32" height="32" viewBox="0 0 32 32" fill="none" xmlns="http://www.w3.org/2000/svg">
<path d="M16 8.622C18.403 8.622 18.688 8.631 19.637 8.674C20.514 8.714 20.991 8.861 21.308 8.984C21.728 9.147 22.028 9.342 22.343 9.657C22.658 9.972 22.853 10.272 23.016 10.692C23.139 11.009 23.286 11.486 23.326 12.363C23.369 13.312 23.378 13.597 23.378 16C23.378 18.403 23.369 18.688 23.326 19.637C23.286 20.514 23.139 20.991 23.016 21.308C22.853 21.728 22.658 22.028 22.343 22.343C22.028 22.658 21.728 22.853 21.308 23.016C20.991 23.139 20.514 23.286 19.637 23.326C18.688 23.369 18.404 23.378 16 23.378C13.596 23.378 13.312 23.369 12.363 23.326C11.486 23.286 11.009 23.139 10.692 23.016C10.272 22.853 9.972 22.658 9.657 22.343C9.342 22.028 9.147 21.728 8.984 21.308C8.861 20.991 8.714 20.514 8.674 19.637C8.631 18.688 8.622 18.403 8.622 16C8.622 13.597 8.631 13.312 8.674 12.363C8.714 11.486 8.861 11.009 8.984 10.692C9.147 10.272 9.342 9.972 9.657 9.657C9.972 9.342 10.272 9.147 10.692 8.984C11.009 8.861 11.486 8.714 12.363 8.674C13.312 8.631 13.597 8.622 16 8.622ZM16 7C13.556 7 13.249 7.01 12.289 7.054C11.331 7.098 10.677 7.25 10.105 7.472C9.513 7.702 9.011 8.01 8.511 8.511C8.011 9.011 7.703 9.513 7.473 10.105C7.25 10.677 7.098 11.331 7.054 12.289C7.01 13.249 7 13.556 7 16C7 18.444 7.01 18.751 7.054 19.711C7.098 20.669 7.25 21.323 7.472 21.896C7.702 22.488 8.01 22.99 8.51 23.49C9.01 23.99 9.512 24.298 10.104 24.528C10.676 24.75 11.331 24.903 12.289 24.946C13.249 24.99 13.556 25 16 25C18.444 25 18.751 24.99 19.711 24.946C20.669 24.902 21.323 24.75 21.896 24.528C22.488 24.298 22.99 23.99 23.49 23.49C23.99 22.99 24.298 22.488 24.528 21.896C24.75 21.324 24.903 20.669 24.946 19.711C24.99 18.751 25 18.444 25 16C25 13.556 24.99 13.249 24.946 12.289C24.902 11.331 24.75 10.677 24.528 10.104C24.298 9.512 23.99 9.01 23.49 8.51C22.99 8.01 22.488 7.702 21.896 7.472C21.324 7.25 20.669 7.097 19.711 7.054C18.751 7.01 18.444 7 16 7ZM16 11.378C13.448 11.378 11.378 13.447 11.378 16C11.378 18.553 13.448 20.622 16 20.622C18.552 20.622 20.622 18.553 20.622 16C20.622 13.447 18.552 11.378 16 11.378ZM16 19C14.343 19 13 17.657 13 16C13 14.343 14.343 13 16 13C17.657 13 19 14.343 19 16C19 17.657 17.657 19 16 19ZM20.804 10.116C20.208 10.116 19.724 10.6 19.724 11.196C19.724 11.792 20.208 12.276 20.804 12.276C21.4 12.276 21.884 11.792 21.884 11.196C21.884 10.6 21.401 10.116 20.804 10.116Z" fill="#4F4F4F"/>
</svg>
