<svg width="32" height="32" viewBox="0 0 32 32" fill="none" xmlns="http://www.w3.org/2000/svg">
<path d="M26 9.924C25.264 10.25 24.473 10.471 23.643 10.57C24.49 10.062 25.141 9.258 25.447 8.3C24.654 8.77 23.776 9.112 22.841 9.296C22.094 8.498 21.027 8 19.847 8C17.581 8 15.744 9.837 15.744 12.103C15.744 12.425 15.78 12.738 15.85 13.038C12.44 12.867 9.417 11.234 7.393 8.751C7.04 9.357 6.837 10.062 6.837 10.814C6.837 12.238 7.561 13.493 8.662 14.229C7.989 14.208 7.357 14.023 6.803 13.716C6.803 13.733 6.803 13.75 6.803 13.768C6.803 15.756 8.217 17.415 10.095 17.791C9.751 17.885 9.388 17.935 9.014 17.935C8.75 17.935 8.493 17.909 8.242 17.861C8.764 19.491 10.28 20.677 12.075 20.711C10.671 21.811 8.901 22.467 6.979 22.467C6.648 22.467 6.321 22.448 6 22.41C7.816 23.574 9.973 24.253 12.29 24.253C19.837 24.253 23.965 18.001 23.965 12.578C23.965 12.4 23.961 12.223 23.953 12.047C24.755 11.47 25.45 10.747 26 9.924Z" fill="#4F4F4F"/>
</svg>
